<svg width="107" height="108" viewBox="0 0 107 108" fill="none" xmlns="http://www.w3.org/2000/svg">
<path d="M80.2716 87.7248C80.2369 87.9238 80.2239 88.1289 80.2272 88.3305C80.2344 88.8013 80.3146 89.2684 80.3261 89.739C80.3516 90.784 79.7503 91.5801 80.0414 92.6649C80.1746 93.1607 80.6738 94.0939 81.2315 94.0806C81.7866 94.0673 82.1288 93.4227 82.2887 92.944C82.5315 92.2175 82.7639 91.5537 83.1077 90.8671C83.2737 90.5355 83.4355 90.1945 83.5668 89.8441C82.3653 89.2738 81.2921 88.5994 80.527 87.9605C80.4363 87.8847 80.3517 87.8059 80.2716 87.7248Z" fill="#1F2A50"/>
<path d="M92.6752 89.0222C92.81 89.1769 92.9413 89.3356 93.0788 89.4875C93.4709 89.9208 93.9746 90.3779 94.5263 90.2569C94.9835 90.1566 95.2957 89.6615 95.3452 89.1653C95.3946 88.6687 95.2329 88.176 95.0328 87.7247C94.5472 86.6271 93.8289 85.6728 93.0352 84.8133C93.058 85.0532 93.0802 85.2937 93.0966 85.535C93.1762 86.6915 93.0945 87.9791 92.6752 89.0222Z" fill="#1F2A50"/>
<path d="M93.2604 92.3413C93.103 91.3895 92.7802 90.4837 92.376 89.6223C92.1122 90.0559 91.7687 90.4211 91.3215 90.6745C90.8832 90.9227 90.3881 91.0795 89.8566 91.1629C90.1919 91.952 90.551 92.7298 90.9412 93.4898C91.212 94.0185 91.5852 94.6015 92.1472 94.6406C92.6131 94.6729 93.0362 94.2836 93.2064 93.8189C93.3767 93.3539 93.3421 92.8332 93.2604 92.3413Z" fill="#1F2A50"/>
<path d="M86.3948 90.8855C86.4102 90.9639 86.426 91.0418 86.4426 91.1197C86.6391 92.0613 86.8726 92.9942 87.1424 93.9152C87.3107 94.4904 87.5689 95.1407 88.1129 95.2977C88.5632 95.4277 89.0503 95.1354 89.3026 94.7154C89.5551 94.2957 89.6173 93.7776 89.628 93.2784C89.6431 92.5829 89.5683 91.893 89.4378 91.214C88.4894 91.2924 87.4435 91.1573 86.3948 90.8855Z" fill="#1F2A50"/>
<path d="M78.721 62.7777C78.854 63.9211 78.8253 65.0863 78.6265 66.2188C78.4356 67.3076 78.1934 68.4064 78.2254 69.5215C78.2811 71.4768 79.2932 73.6471 80.0325 75.4084C80.2273 75.8722 80.431 76.3358 80.6448 76.797C82.2021 80.154 84.292 83.3722 87.2378 85.4374C87.9804 85.9565 88.803 86.4089 89.6888 86.4543C90.625 86.5024 91.5404 86.0846 92.2921 85.4855C92.478 85.3371 92.7336 85.0231 93.0228 84.6708C92.0781 75.2164 86.3818 66.6923 79.3619 61.0963C79.1771 60.9489 78.9674 60.7846 78.7425 60.6188C78.8806 61.3055 78.8454 62.0513 78.721 62.7777Z" fill="#EBF2E5"/>
<path d="M92.3761 89.6223C92.4909 89.4344 92.5901 89.2338 92.6752 89.0222C93.0946 87.9791 93.1762 86.6915 93.0966 85.535C93.0802 85.2937 93.058 85.0532 93.0352 84.8133C93.0308 84.7656 93.0278 84.7181 93.0228 84.6708C92.7336 85.0231 92.478 85.3371 92.292 85.4855C91.5402 86.0846 90.6249 86.5024 89.6888 86.4543C88.8029 86.4089 87.9804 85.9565 87.2378 85.4374C84.2919 83.3722 82.2021 80.154 80.6448 76.797C80.4309 76.3358 80.2272 75.8722 80.0324 75.4084C79.2931 73.6472 78.281 71.4768 78.2253 69.5215C78.1934 68.4064 78.4356 67.3076 78.6264 66.2188C78.8252 65.0863 78.8539 63.9211 78.721 62.7777C78.7158 62.8084 78.711 62.8395 78.7053 62.8703C78.6491 63.1795 78.5775 63.4851 78.496 63.7801C78.4582 63.9174 78.4169 64.0536 78.3757 64.1901C78.4 64.3944 78.404 64.6009 78.3866 64.8005C78.313 65.652 77.9509 66.4382 77.6831 67.2437C77.2368 68.5857 77.1048 69.95 77.1473 71.3191C77.2066 73.2212 77.6026 75.133 77.9601 77.0061C79.0111 82.5095 81.864 87.6699 86.2328 90.842C86.2868 90.8568 86.3409 90.8715 86.3949 90.8854C87.4435 91.1573 88.4895 91.2924 89.438 91.214C89.5801 91.2021 89.7191 91.1843 89.8567 91.1628C90.3883 91.0795 90.8834 90.9227 91.3216 90.6744C91.7687 90.421 92.1123 90.0559 92.3761 89.6223Z" fill="#C6CAD6"/>
<path d="M77.9601 77.0062C77.6025 75.1331 77.2066 73.2212 77.1473 71.3192C77.1048 69.95 77.2368 68.5857 77.6831 67.2438C77.9509 66.4383 78.313 65.6521 78.3866 64.8005C78.404 64.6009 78.4 64.3944 78.3757 64.1902C77.6507 66.5834 76.4165 68.7978 74.7951 70.6192C74.6235 71.4593 74.4278 72.2944 74.213 73.1251C75.0398 74.6349 75.7969 76.1883 76.4806 77.7778C76.5043 77.8336 76.5284 77.8893 76.5523 77.9452C77.3139 79.7326 77.9828 81.5652 78.5544 83.4316C79.0301 84.9846 79.1562 86.5966 80.2716 87.7249C80.3517 87.8059 80.4363 87.8848 80.5269 87.9605C81.2921 88.5993 82.3652 89.2738 83.5667 89.8441C84.4122 90.2455 85.3214 90.5937 86.2327 90.8422C81.8639 87.67 79.011 82.5096 77.9601 77.0062Z" fill="#A1A8C3"/>
<path d="M75.7243 58.1471C76.1612 59.3323 76.4131 60.5957 76.4667 61.8687C76.4782 62.1456 76.4835 62.4359 76.6102 62.6783C76.7142 62.8776 76.9285 62.9894 77.1825 63.0432C77.6441 63.1406 78.2379 63.0473 78.5449 62.9434C78.5989 62.9249 78.652 62.8991 78.7054 62.8703C78.7111 62.8395 78.7159 62.8084 78.721 62.7777C78.8454 62.0513 78.8806 61.3055 78.7425 60.6188C78.6476 60.1484 78.4728 59.705 78.1897 59.3157C77.6116 58.5217 76.658 58.1209 75.7117 58.1334C75.7125 58.1453 75.7132 58.1573 75.7136 58.169C75.7174 58.1619 75.7209 58.1545 75.7243 58.1471Z" fill="#203A73"/>
<path d="M77.1825 63.0432C76.9285 62.9894 76.7142 62.8776 76.6101 62.6782C76.4835 62.4358 76.4782 62.1456 76.4667 61.8686C76.4131 60.5956 76.1612 59.3323 75.7243 58.1471C75.7209 58.1545 75.7174 58.1618 75.7136 58.169C75.7315 58.494 75.7488 58.8189 75.76 59.1441C75.8042 60.429 75.7962 61.7155 75.738 62.9999C75.6893 64.076 75.6085 65.1502 75.4888 66.2208C75.3243 67.6954 75.0919 69.1637 74.7952 70.6191C76.4165 68.7977 77.6508 66.5833 78.3757 64.19C78.4169 64.0535 78.4582 63.9174 78.496 63.78C78.5775 63.4851 78.6491 63.1795 78.7053 62.8702C78.6519 62.8991 78.5987 62.9248 78.5448 62.9433C78.2379 63.0473 77.6441 63.1406 77.1825 63.0432Z" fill="#1F2A50"/>
<path d="M26.4367 87.9604C25.6715 88.5992 24.5984 89.2737 23.3971 89.844C23.5281 90.1944 23.6901 90.5354 23.856 90.867C24.1998 91.5536 24.4322 92.2174 24.6749 92.9439C24.8349 93.4227 25.1771 94.0673 25.7324 94.0805C26.29 94.0938 26.7893 93.1606 26.9222 92.6648C27.2132 91.58 26.6121 90.7839 26.6376 89.7389C26.6492 89.2684 26.7292 88.8012 26.7366 88.3304C26.7397 88.1288 26.7267 87.9237 26.6921 87.7247C26.6119 87.8059 26.5275 87.8847 26.4367 87.9604Z" fill="#1F2A50"/>
<path d="M13.867 85.535C13.8836 85.2937 13.9058 85.0532 13.9286 84.8133C13.1349 85.6728 12.4166 86.6271 11.9308 87.7247C11.7309 88.176 11.569 88.6688 11.6186 89.1653C11.6679 89.6615 11.9803 90.1566 12.4373 90.2569C12.9893 90.3779 13.4929 89.9208 13.8848 89.4875C14.0224 89.3356 14.1536 89.1769 14.2884 89.0222C13.8691 87.9791 13.7876 86.6915 13.867 85.535Z" fill="#1F2A50"/>
<path d="M14.5876 89.6223C14.1838 90.4837 13.8609 91.3895 13.7032 92.3413C13.6217 92.8332 13.5871 93.3539 13.7573 93.819C13.9274 94.2836 14.3507 94.673 14.8163 94.6406C15.3785 94.6016 15.7515 94.0186 16.0228 93.4899C16.4126 92.7298 16.7719 91.952 17.1074 91.1629C16.5756 91.0796 16.0803 90.9228 15.6423 90.6745C15.1949 90.4211 14.8515 90.0559 14.5876 89.6223Z" fill="#1F2A50"/>
<path d="M17.5258 91.214C17.3954 91.893 17.3208 92.5828 17.3357 93.2784C17.3466 93.7776 17.4086 94.2957 17.661 94.7154C17.9135 95.1354 18.4004 95.4277 18.8507 95.2977C19.3947 95.1407 19.653 94.4904 19.8213 93.9152C20.091 92.9943 20.3245 92.0613 20.5214 91.1197C20.5377 91.0419 20.5533 90.9639 20.569 90.8855C19.5204 91.1573 18.4744 91.2924 17.5258 91.214Z" fill="#1F2A50"/>
<path d="M14.8209 85.4924C15.5725 86.0918 16.488 86.5095 17.4242 86.4614C18.31 86.416 19.1328 85.9636 19.8752 85.4443C22.8208 83.3792 24.9107 80.1614 26.4682 76.8044C26.682 76.3432 26.886 75.8796 27.0805 75.4157C27.8199 73.6545 28.8318 71.4842 28.8876 69.5287C28.9195 68.4135 28.6774 67.3147 28.4863 66.2262C28.317 65.2608 28.2736 64.2722 28.3455 63.2931C28.1441 62.4107 28.0506 61.4695 28.2214 60.6188C27.9962 60.7846 27.7868 60.949 27.602 61.0963C20.6199 66.662 14.9482 75.124 13.9573 84.5172C14.3012 84.9324 14.6073 85.3221 14.8209 85.4924Z" fill="#EBF2E5"/>
<path d="M29.1529 77.0136C29.5107 75.14 29.9067 73.2286 29.9658 71.3262C30.0082 69.9572 29.8762 68.5929 29.43 67.2509C29.162 66.4454 28.8001 65.6588 28.7262 64.8077C28.7201 64.736 28.7167 64.6638 28.7155 64.5913C28.6271 64.3229 28.5432 64.053 28.4676 63.7801C28.4277 63.6358 28.391 63.4882 28.3564 63.3396C28.3528 63.3243 28.3492 63.3089 28.3455 63.2932C28.2736 64.2722 28.317 65.2609 28.4863 66.2262C28.6774 67.3148 28.9196 68.4136 28.8876 69.5287C28.8318 71.4842 27.8198 73.6545 27.0805 75.4158C26.886 75.8796 26.6821 76.3432 26.4682 76.8044C24.9107 80.1614 22.8209 83.3792 19.8752 85.4444C19.1328 85.9637 18.3101 86.4161 17.4242 86.4615C16.488 86.5096 15.5725 86.0918 14.8209 85.4925C14.6073 85.3222 14.3012 84.9324 13.9572 84.5173C13.9467 84.6158 13.9379 84.7145 13.9285 84.8133C13.9058 85.0532 13.8836 85.2937 13.8669 85.535C13.7876 86.6915 13.869 87.9791 14.2883 89.0222C14.3734 89.2338 14.4729 89.4344 14.5875 89.6224C14.8515 90.0559 15.1948 90.4211 15.6423 90.6745C16.0803 90.9228 16.5756 91.0795 17.1073 91.1629C17.2445 91.1844 17.3836 91.2022 17.5257 91.2141C18.4743 91.2925 19.5203 91.1574 20.569 90.8855C20.7092 90.8489 20.8492 90.81 20.9892 90.769C25.2963 87.5904 28.111 82.4707 29.1529 77.0136Z" fill="#C6CAD6"/>
<path d="M28.7155 64.5913C28.7166 64.6637 28.7201 64.736 28.7262 64.8076C28.8001 65.6588 29.162 66.4454 29.43 67.2509C29.8762 68.5928 30.0083 69.9572 29.9658 71.3262C29.9066 73.2286 29.5107 75.14 29.1529 77.0136C28.111 82.4708 25.2963 87.5904 20.9893 90.769C21.8135 90.5271 22.6313 90.2071 23.397 89.8441C24.5983 89.2738 25.6715 88.5993 26.4366 87.9605C26.5275 87.8847 26.6118 87.8059 26.692 87.7249C27.8076 86.5966 27.9338 84.9846 28.4092 83.4316C28.9806 81.5652 29.6499 79.7326 30.4114 77.9452C30.4351 77.8893 30.4593 77.8336 30.4832 77.7778C31.124 76.2876 31.8331 74.8312 32.6 73.4108C32.3261 72.3773 32.0889 71.335 31.8827 70.2866C30.4905 68.6356 29.4066 66.6882 28.7155 64.5913Z" fill="#A1A8C3"/>
<path d="M28.3455 63.2931C28.3492 63.3089 28.3528 63.3242 28.3565 63.3396C28.4529 63.3803 28.5596 63.3986 28.6634 63.3926C28.9775 63.3742 29.4164 63.1972 29.7391 62.9464C29.8919 62.8276 30.0186 62.6921 30.0937 62.5495C30.1999 62.3471 30.225 62.1096 30.254 61.8799C30.3812 60.8747 30.6295 59.8876 30.9865 58.9477C30.9968 58.6775 31.0146 58.4079 31.0297 58.1379C30.1588 58.1865 29.3067 58.584 28.7742 59.3158C28.4909 59.7051 28.3161 60.1481 28.2213 60.6189C28.0506 61.4695 28.1441 62.4107 28.3455 63.2931Z" fill="#203A73"/>
<path d="M30.9777 59.3138C30.9813 59.1921 30.9817 59.0697 30.9865 58.9477C30.6296 59.8876 30.3813 60.8746 30.2541 61.8799C30.225 62.1096 30.1999 62.347 30.0938 62.5494C30.0186 62.6921 29.892 62.8276 29.7391 62.9463C29.4164 63.1971 28.9776 63.3741 28.6635 63.3926C28.5596 63.3985 28.4529 63.3803 28.3565 63.3396C28.3911 63.4882 28.4279 63.6357 28.4676 63.78C28.5432 64.0529 28.6272 64.3229 28.7156 64.5912C29.4067 66.6881 30.4905 68.6356 31.8828 70.2865C31.7288 69.5052 31.5937 68.7207 31.4778 67.9331C31.3938 67.3634 31.3168 66.7927 31.2528 66.2208C30.9968 63.9285 30.9063 61.6189 30.9777 59.3138Z" fill="#1F2A50"/>
<path d="M41.2953 89.4744C41.4003 89.6881 41.5091 89.8997 41.6262 90.1069C44.2744 92.8168 47.6356 94.7225 51.2212 95.5362C53.3986 96.0305 55.653 96.1212 57.8599 95.8189C59.2253 95.4146 60.5278 94.7979 61.7092 93.9471C63.2705 92.8237 64.573 91.2568 65.4485 89.4733C60.0365 91.6321 46.7098 91.6322 41.2953 89.4744Z" fill="#1F2A50"/>
<path d="M75.7601 59.1442C72.9424 60.5013 69.9705 61.5205 66.9349 62.2211C64.9793 62.6725 62.9958 62.9951 61.0007 63.1949C56.3248 63.6624 51.5444 63.4098 46.8842 62.8321C41.3533 62.1462 36.0605 61.3309 30.9777 59.3138C30.9064 61.6189 30.9969 63.9285 31.2528 66.2209C31.3167 66.7928 31.3938 67.3635 31.4778 67.9331C33.6671 69.7748 35.9078 71.5468 38.345 72.9803C44.7016 76.7188 53.4264 78.4413 60.58 76.4677C60.6701 76.4427 60.7603 76.4173 60.85 76.3911C64.1662 75.4274 67.7701 71.7396 70.2546 69.3234C72.2453 67.387 74.08 65.2674 75.7381 63C75.7962 61.7155 75.8043 60.4291 75.7601 59.1442Z" fill="#EBF2E5"/>
<path d="M48.8922 87.4813C44.8567 87.0457 40.8689 86.0646 37.0676 84.5499C37.7314 85.752 38.4441 86.9282 39.2111 88.0708C39.574 88.6114 40.303 89.0787 41.2953 89.4744C46.7097 91.6323 60.0365 91.6321 65.4485 89.4733C66.4398 89.0778 67.1678 88.6109 67.5305 88.0707C68.2381 87.017 68.8973 85.9331 69.5169 84.8284C68.9132 85.0568 68.3064 85.2767 67.6941 85.4785C61.6323 87.4761 55.2028 88.1629 48.8922 87.4813Z" fill="#C6CAD6"/>
<path d="M75.4887 66.2209C75.6085 65.1503 75.6892 64.0761 75.738 63C74.0799 65.2674 72.2452 67.387 70.2545 69.3234C67.77 71.7396 64.1661 75.4274 60.8499 76.3911C60.7602 76.4173 60.6701 76.4427 60.5799 76.4677C53.4263 78.4413 44.7015 76.7188 38.345 72.9803C35.9077 71.5468 33.667 69.7748 31.4777 67.9332C31.5936 68.7208 31.7286 69.5052 31.8826 70.2865C32.0888 71.335 32.326 72.3772 32.5999 73.4108C33.5931 77.1585 35.028 80.7941 36.881 84.2139C38.1791 84.7406 39.4988 85.2073 40.8367 85.6077C46.8889 87.4192 53.2644 87.9336 59.5014 87.1063C62.9745 86.6457 66.4058 85.7757 69.7001 84.5038C71.6778 80.9134 73.1898 77.0799 74.213 73.125C74.4278 72.2943 74.6235 71.4592 74.7951 70.6192C75.0918 69.1638 75.3242 67.6955 75.4887 66.2209Z" fill="#C6CAD6"/>
<path d="M59.5015 87.1062C53.2645 87.9336 46.889 87.4192 40.8368 85.6076C39.4989 85.2072 38.1792 84.7406 36.8811 84.2139C36.9421 84.3263 37.0056 84.4378 37.0676 84.5498C40.8689 86.0645 44.8568 87.0456 48.8922 87.4812C55.2029 88.1628 61.6323 87.476 67.6941 85.4784C68.3064 85.2766 68.9132 85.0567 69.5169 84.8283C69.5779 84.7201 69.6403 84.6126 69.7002 84.5037C66.406 85.7758 62.9746 86.6457 59.5015 87.1062Z" fill="#203A73"/>
<path d="M30.9777 59.3139C36.0605 61.3309 41.3533 62.1462 46.8842 62.8322C51.5444 63.4098 56.3248 63.6624 61.0007 63.1949C62.9958 62.9951 64.9793 62.6725 66.9349 62.2212C69.9705 61.5205 72.9424 60.5013 75.7601 59.1442C75.7488 58.8189 75.7316 58.4941 75.7136 58.169C75.7132 58.1574 75.7125 58.1453 75.7117 58.1334C75.6952 57.8374 75.6788 57.5414 75.657 57.2457C68.4746 57.9967 38.2669 57.9967 31.0851 57.2457C31.0629 57.5429 31.0462 57.8403 31.0298 58.1379C31.0146 58.4079 30.9969 58.6775 30.9865 58.9477C30.9817 59.0697 30.9813 59.1921 30.9777 59.3139Z" fill="#A1A8C3"/>
<path d="M21.5517 33.8771C21.8 32.7173 22.1837 30.7447 22.2587 30.4663C22.63 29.0868 23.0725 27.7274 23.5905 26.4031C23.681 26.172 23.7944 25.8434 23.9329 25.4928C24.4004 23.7697 24.963 22.0851 25.6136 20.4614C25.6864 20.2798 25.7601 20.0985 25.8345 19.9173C24.6196 20.1996 23.583 20.5517 23.1654 20.9252C22.5118 21.51 22.0791 22.2779 21.6871 23.044C20.0128 26.3185 19.0997 29.7179 18.8547 33.1389C19.4379 33.5759 20.047 33.9735 20.6824 34.3171C21.036 34.5082 21.4633 34.29 21.5517 33.8771Z" fill="#203A73"/>
<path d="M85.0545 23.0441C84.6627 22.2779 84.2302 21.5101 83.5761 20.9253C83.1582 20.5513 82.1203 20.199 80.9042 19.9167C80.9801 20.0973 81.0549 20.2786 81.128 20.4615C82.1009 22.8887 82.8796 25.4513 83.4309 28.0777C83.6681 28.4489 83.8993 28.7127 84.0472 29.1573C84.4103 30.2498 84.7154 31.3519 85.0888 32.4361C85.203 32.7677 85.3235 33.0975 85.4542 33.4248C86.3605 33.0187 87.124 32.4553 87.7497 31.742C87.3788 28.7939 86.5008 25.8723 85.0545 23.0441Z" fill="#203A73"/>
<path d="M87.9574 35.008C87.9563 33.9178 87.8863 32.8282 87.7497 31.7419C87.124 32.4553 86.3606 33.0186 85.4542 33.4247C85.3236 33.0974 85.203 32.7677 85.0888 32.4361C84.7154 31.3518 84.4104 30.2497 84.0472 29.1573C83.8994 28.7127 83.6681 28.4488 83.4309 28.0777C83.8961 30.2935 84.1986 32.5548 84.3175 34.8189C84.5157 38.602 84.2018 42.3932 83.2742 45.9933C82.888 47.4925 82.3558 49.1004 81.6643 50.6561C82.9591 50.2686 84.0784 49.8111 84.4966 49.3811C85.111 48.7493 85.4932 47.9513 85.8344 47.1579C87.5586 43.1506 88.2145 39.0473 87.9574 35.008Z" fill="#1F2A50"/>
<path d="M22.38 36.0031C22.4645 32.456 23.0093 28.8981 23.9329 25.4929C23.7944 25.8435 23.6809 26.172 23.5905 26.4031C23.0725 27.7275 22.63 29.0869 22.2587 30.4663C22.1837 30.7447 21.8 32.7173 21.5517 33.8771C21.4633 34.29 21.036 34.5082 20.6825 34.3172C20.047 33.9735 19.4379 33.576 18.8547 33.139C18.8101 33.7617 18.7851 34.3848 18.7843 35.0081C18.527 39.0473 19.1831 43.1506 20.9072 47.1579C21.2485 47.9513 21.6307 48.7494 22.2449 49.3811C22.6631 49.8111 23.7825 50.2687 25.0775 50.6561C24.3858 49.1004 23.8537 47.4926 23.4674 45.9934C22.6369 42.7688 22.2994 39.391 22.38 36.0031Z" fill="#1F2A50"/>
<path d="M83.431 28.0777C82.8797 25.4513 82.101 22.8887 81.1281 20.4614C81.055 20.2786 80.9802 20.0973 80.9043 19.9167C79.9023 17.5293 78.653 15.3332 76.6396 13.686C73.0794 10.7739 34.1031 10.8688 30.1024 13.686C27.9843 15.1776 26.8239 17.5093 25.8346 19.9173C25.7601 20.0985 25.6865 20.2798 25.6136 20.4614C24.9631 22.085 24.4004 23.7697 23.933 25.4928C23.0094 28.8981 22.4646 32.4559 22.3801 36.003C23.0029 36.7758 23.6826 37.4963 24.4087 38.1571C25.4506 39.1054 26.7262 40.5944 28.1222 39.5627C29.2162 38.7543 29.001 37.293 29.1051 36.0438C29.2148 34.7254 29.339 33.3903 29.6275 32.1006C29.7985 31.3353 30.0032 30.5773 30.2394 29.8309C30.7978 26.7484 31.9599 23.8213 34.0025 21.5168C34.5306 20.921 44.0605 20.7064 53.371 20.7572C62.6815 20.7064 72.2113 20.921 72.7395 21.5168C74.4621 23.4602 75.5572 25.8472 76.1938 28.3958C76.3484 28.729 76.4946 29.0666 76.6288 29.4096C77.1231 30.6743 77.4361 31.9188 77.6067 33.2708L78.1589 37.6572C78.254 38.4103 78.9985 38.8615 79.6466 38.5511C80.9384 37.9327 82.1477 37.1602 83.1908 36.1339C83.621 35.7106 83.9923 35.2713 84.3177 34.8189C84.1986 32.5548 83.8962 30.2936 83.431 28.0777Z" fill="#EBF2E5"/>
<path d="M84.3176 34.8189C83.9922 35.2713 83.6209 35.7106 83.1907 36.1339C82.1476 37.1602 80.9383 37.9327 79.6465 38.5511C78.9984 38.8615 78.2539 38.4103 78.1588 37.6572L77.6066 33.2708C77.436 31.9188 77.123 30.6743 76.6287 29.4097C76.4944 29.0666 76.3482 28.7291 76.1937 28.3958C76.6162 30.0888 76.8374 31.8529 76.9018 33.6073C77.0665 34.5542 77.1679 35.5218 77.2031 36.4928C77.3414 40.3211 76.3255 49.3118 74.1038 50.4489C71.6117 51.7241 37.1942 50.5038 34.7214 50.2868C32.6666 50.1065 31.9821 48.9405 31.3695 46.8422C30.8415 45.0331 30.5243 43.1124 30.4352 41.1826C29.7861 37.7607 29.5426 33.6756 30.2393 29.8309C30.0031 30.5772 29.7984 31.3352 29.6274 32.1005C29.3389 33.3903 29.2148 34.7253 29.105 36.0438C29.0009 37.293 29.2161 38.7544 28.1221 39.5626C26.7261 40.5943 25.4506 39.1053 24.4086 38.157C23.6825 37.4963 23.0028 36.7758 22.38 36.003C22.2994 39.3909 22.6369 42.7687 23.4675 45.9933C23.8537 47.4924 24.3859 49.1003 25.0776 50.656C26.1606 53.0925 27.6382 55.3998 29.5826 56.9512C29.7186 57.0595 30.2445 57.1577 31.085 57.2456C38.2668 57.9966 68.4746 57.9966 75.657 57.2456C76.4973 57.1577 77.0233 57.0595 77.1592 56.9512C79.1036 55.3999 80.581 53.0925 81.6644 50.656C82.356 49.1003 82.8881 47.4925 83.2743 45.9933C84.2018 42.3932 84.5157 38.6021 84.3176 34.8189Z" fill="#C6CAD6"/>
<path d="M73.1569 49.0573C72.5668 49.43 62.859 49.6118 53.3708 49.6028C43.8827 49.6118 34.1747 49.43 33.5848 49.0573C32.564 48.412 31.2106 45.2712 30.4352 41.1827C30.5243 43.1125 30.8415 45.0332 31.3694 46.8423C31.9821 48.9406 32.6666 50.1066 34.7214 50.2869C37.1942 50.5039 71.6117 51.7242 74.1038 50.449C76.3254 49.3119 77.3414 40.3212 77.2031 36.4929C77.1679 35.5219 77.0665 34.5543 76.9018 33.6074C77.1719 40.9172 74.7556 48.0469 73.1569 49.0573Z" fill="#A1A8C3"/>
<path d="M76.9019 33.6073C76.8374 31.8529 76.6163 30.0889 76.1937 28.3958C75.5571 25.8472 74.462 23.4602 72.7394 21.5169C72.2113 20.921 62.6813 20.7065 53.3709 20.7573C44.0604 20.7065 34.5305 20.921 34.0024 21.5169C31.9598 23.8214 30.7977 26.7485 30.2393 29.831C29.5426 33.6757 29.7861 37.7608 30.4352 41.1827C31.2107 45.2712 32.5641 48.4121 33.5847 49.0573C34.1747 49.43 43.8826 49.6118 53.3708 49.6028C62.859 49.6118 72.5668 49.43 73.1569 49.0573C74.7556 48.0469 77.172 40.9172 76.9019 33.6073Z" fill="#1F2A50"/>
<path d="M33.5867 32.9429C33.2859 34.5589 33.0411 36.2741 33.5685 37.8222C34.4147 40.3053 36.9528 40.5143 39.0803 40.4199C39.1637 40.4163 39.2477 40.4111 39.3311 40.4074C38.9919 39.7111 38.8152 38.9089 38.7707 38.1425C38.6605 36.2524 38.8529 28.9572 39.7426 27.9225C41.0403 26.4135 43.8391 26.3975 45.1502 27.9225C46.0399 28.9577 46.2323 36.2524 46.1222 38.1425C46.0862 38.7588 45.9645 39.3977 45.7423 39.9866C48.9766 39.7061 52.2159 39.3151 55.4099 38.7694C57.1491 38.4722 58.8804 38.1238 60.6028 37.7304C60.5361 35.3701 60.7572 28.893 61.5916 27.9225C62.8893 26.4135 65.6878 26.3975 66.9992 27.9225C67.635 28.6622 67.9145 32.5983 67.9824 35.4747C68.8107 35.0433 69.5965 34.4989 70.3333 33.7696C71.8434 32.2743 73.0906 29.8456 72.0963 27.6588C71.5327 26.4184 70.4456 25.521 69.2635 24.9712C68.0815 24.4216 66.797 24.1821 65.5253 23.9594C57.1173 22.4866 48.4629 21.5448 40.1169 23.3778C39.0775 23.606 37.9268 23.8574 36.9968 24.4308C36.1771 24.9362 35.7624 25.8899 35.3492 26.7901C34.4617 28.7243 33.9781 30.8396 33.5867 32.9429Z" fill="#203A73"/>
<path d="M45.1502 27.9226C43.8391 26.3976 41.0403 26.4136 39.7426 27.9226C38.8529 28.9573 38.6604 36.2524 38.7706 38.1425C38.8152 38.9089 38.992 39.7111 39.3311 40.4075C39.6004 40.961 39.9723 41.4482 40.4631 41.797C41.528 42.5539 43.3304 42.5783 44.4295 41.797C45.0412 41.362 45.4682 40.7125 45.7422 39.9867C45.9644 39.3978 46.0861 38.7589 46.1221 38.1426C46.2323 36.2524 46.0398 28.9577 45.1502 27.9226Z" fill="#3EC0F0"/>
<path d="M61.5916 27.9226C60.7572 28.893 60.536 35.3702 60.6028 37.7305C60.6072 37.8867 60.613 38.0253 60.6199 38.1425C60.6998 39.5183 61.2041 41.0093 62.3122 41.7969C63.3769 42.5539 65.1793 42.5783 66.2784 41.7969C67.387 41.0093 67.891 39.5183 67.9711 38.1425C68.0025 37.6034 68.0094 36.6231 67.9824 35.4748C67.9145 32.5984 67.635 28.6623 66.9992 27.9226C65.6879 26.3976 62.8893 26.4136 61.5916 27.9226Z" fill="#3EC0F0"/>
<path d="M51.2212 95.5361C47.6356 94.7225 44.2745 92.8167 41.6262 90.1068C42.4849 91.6271 43.6585 92.9582 45.0327 93.9471C47.4682 95.7005 50.4197 96.4603 53.3705 96.419C54.8907 96.4403 56.4105 96.2489 57.8599 95.8188C55.653 96.1212 53.3986 96.0305 51.2212 95.5361Z" fill="#203A73"/>
</svg>
